<?xml version="1.0" standalone="no"?>
<!DOCTYPE svg PUBLIC "-//W3C//DTD SVG 20010904//EN"
 "http://www.w3.org/TR/2001/REC-SVG-20010904/DTD/svg10.dtd">
<svg version="1.0" xmlns="http://www.w3.org/2000/svg"
 width="644.000000pt" height="617.000000pt" viewBox="0 0 644.000000 617.000000"
 preserveAspectRatio="xMidYMid meet">

<g transform="translate(0.000000,617.000000) scale(0.100000,-0.100000)"
fill="#000000" stroke="none">
<path d="M1793 6067 c-177 -45 -324 -85 -328 -88 -6 -7 29 -166 39 -176 6 -6
652 150 662 160 6 6 -38 187 -46 186 -3 0 -150 -38 -327 -82z"/>
<path d="M40 4950 l0 -730 120 0 120 0 0 269 0 269 243 4 c272 5 310 13 415
84 173 119 230 390 127 601 -56 113 -152 186 -287 218 -49 11 -138 15 -400 15
l-338 0 0 -730z m659 509 c27 -6 67 -23 89 -39 55 -40 76 -88 80 -190 3 -77 1
-90 -25 -140 -24 -47 -36 -59 -87 -85 l-60 -30 -208 -3 -208 -4 0 251 0 251
185 0 c101 0 207 -5 234 -11z"/>
<path d="M1290 4950 l0 -730 490 0 490 0 0 105 0 105 -370 0 -370 0 0 210 0
210 310 0 310 0 0 105 0 105 -310 0 -310 0 0 200 0 200 365 0 365 0 0 110 0
110 -485 0 -485 0 0 -730z"/>
<path d="M2450 4950 l0 -730 120 0 120 0 0 280 0 280 194 0 c112 0 206 -5 224
-11 57 -20 66 -47 73 -224 7 -184 19 -226 81 -279 47 -40 102 -56 198 -56 l71
0 -3 102 -3 103 -38 6 c-66 11 -71 22 -78 182 -6 154 -16 193 -69 258 l-29 36
34 16 c156 74 229 313 155 509 -25 67 -101 156 -165 193 -23 14 -77 34 -120
45 -71 18 -111 20 -422 20 l-343 0 0 -730z m705 497 c94 -42 130 -111 123
-237 -4 -69 -9 -87 -34 -122 -56 -80 -127 -98 -380 -98 l-174 0 0 241 0 241
213 -4 c176 -3 219 -7 252 -21z"/>
<path d="M3710 4950 l0 -730 125 0 125 0 0 730 0 730 -125 0 -125 0 0 -730z"/>
<path d="M4160 4950 l0 -730 125 0 125 0 0 270 0 270 118 0 c73 0 140 6 177
15 143 37 319 150 458 294 143 148 216 276 217 379 0 86 -34 132 -130 176
-107 49 -193 56 -661 56 l-429 0 0 -730z m821 487 c68 -33 85 -63 74 -134 -17
-117 -110 -235 -231 -294 -69 -34 -69 -34 -241 -37 l-173 -4 0 252 0 252 258
-4 257 -3 56 -28z"/>
<path d="M5178 4947 c-618 -631 -714 -732 -692 -735 22 -3 24 -8 24 -53 l0
-49 730 0 730 0 0 160 0 161 -32 -6 c-52 -9 -561 -85 -570 -85 -5 0 -7 127 -6
282 l3 282 303 245 302 245 0 143 0 143 -37 0 c-37 0 -59 -22 -755 -733z m-43
-636 c-8 -8 -615 -98 -614 -92 0 3 138 116 307 251 l307 246 3 -200 c1 -109 0
-201 -3 -205z"/>
<path d="M4510 3420 l0 -490 105 0 105 0 0 365 0 365 210 0 210 0 0 -305 0
-305 105 0 105 0 0 305 0 305 200 0 200 0 2 -362 3 -363 108 -3 107 -3 0 491
0 490 -730 0 -730 0 0 -490z"/>
<path d="M6173 3718 c-46 -11 -83 -23 -83 -28 0 -16 159 -652 164 -657 3 -3
46 5 95 17 83 20 90 24 85 44 -2 11 -40 160 -82 330 -43 170 -82 311 -87 312
-6 1 -47 -7 -92 -18z"/>
<path d="M4510 2625 l0 -125 280 0 280 0 0 -195 c0 -276 -6 -285 -185 -285
-207 0 -297 -29 -349 -114 -27 -42 -31 -59 -34 -142 l-4 -94 106 0 c106 0 106
0 106 25 0 37 21 75 44 80 12 2 75 6 141 8 137 5 193 21 252 72 l40 34 19 -40
c24 -55 103 -123 172 -151 47 -18 77 -22 172 -23 105 0 120 2 173 27 105 49
177 129 218 240 22 61 23 76 27 436 l3 372 -730 0 -731 0 0 -125z m1250 -312
c-1 -205 -8 -259 -46 -315 -66 -102 -273 -117 -361 -26 -60 62 -66 91 -71 321
l-4 207 241 0 241 0 0 -187z"/>
<path d="M4510 1365 l0 -125 730 0 730 0 0 125 0 125 -730 0 -730 0 0 -125z"/>
<path d="M4510 550 l0 -490 105 0 105 0 0 365 0 365 210 0 210 0 2 -307 3
-308 103 -3 102 -3 0 311 0 310 200 0 200 0 2 -362 3 -363 108 -3 107 -3 0
491 0 490 -730 0 -730 0 0 -490z"/>
</g>
</svg>
